<svg width="31" height="30" viewBox="0 0 31 30" fill="none" xmlns="http://www.w3.org/2000/svg">
<path d="M30.8325 15C30.8325 23.2843 24.1168 30 15.8325 30C7.54825 30 0.83252 23.2843 0.83252 15C0.83252 6.71573 7.54825 0 15.8325 0C24.1168 0 30.8325 6.71573 30.8325 15ZM3.86225 15C3.86225 21.611 9.22152 26.9703 15.8325 26.9703C22.4435 26.9703 27.8028 21.611 27.8028 15C27.8028 8.389 22.4435 3.02973 15.8325 3.02973C9.22152 3.02973 3.86225 8.389 3.86225 15Z" fill="#F5F5F5"/>
<path d="M21.8444 9.76191L19.6147 21.1464C19.6147 21.1464 19.5189 21.6667 18.8736 21.6667C18.5308 21.6667 18.354 21.5036 18.354 21.5036L15.3264 18.9913L13.2873 20.9994C13.2873 20.9994 13.1986 21.0679 13.0801 21.0709C13.0391 21.072 12.9951 21.0655 12.9499 21.0453L13.5237 17.4952L19.376 12.0809C19.507 11.9815 19.5314 11.7952 19.432 11.6642C19.3314 11.5333 19.1457 11.5095 19.0147 11.6089L11.1648 16.3066L11.1611 16.3048L8.12838 15.4982C8.12838 15.4982 7.5885 15.3423 7.5885 14.8958C7.5885 14.5238 8.14386 14.3464 8.14386 14.3464L20.8319 9.30595C20.8314 9.30536 21.2194 9.16607 21.5022 9.16667C21.676 9.16667 21.8742 9.24107 21.8742 9.46429C21.8742 9.6131 21.8444 9.76191 21.8444 9.76191Z" fill="#F5F5F5"/>
</svg>
