<svg width="31" height="30" viewBox="0 0 31 30" fill="none" xmlns="http://www.w3.org/2000/svg">
<path d="M30.8324 15C30.8324 23.2843 24.1167 30 15.8324 30C7.54813 30 0.832397 23.2843 0.832397 15C0.832397 6.71573 7.54813 0 15.8324 0C24.1167 0 30.8324 6.71573 30.8324 15ZM3.86213 15C3.86213 21.611 9.2214 26.9703 15.8324 26.9703C22.4434 26.9703 27.8027 21.611 27.8027 15C27.8027 8.38901 22.4434 3.02973 15.8324 3.02973C9.2214 3.02973 3.86213 8.38901 3.86213 15Z" fill="#F5F5F5"/>
<path fill-rule="evenodd" clip-rule="evenodd" d="M18.5416 8C18.5416 8.20465 18.5607 8.40619 18.5959 8.60124C18.7653 9.50291 19.2989 10.2767 20.0401 10.7595C20.5577 11.0984 21.1711 11.2935 21.8324 11.2935L21.8323 11.8211V13.6596C20.6054 13.6596 19.4681 13.2664 18.5415 12.6013V17.4136C18.5415 19.8149 16.5863 21.7719 14.187 21.7719C13.2605 21.7719 12.3978 21.4776 11.6917 20.982C10.5672 20.1922 9.8324 18.8876 9.8324 17.4136C9.8324 15.009 11.7845 13.0553 14.1838 13.0585C14.3851 13.0585 14.58 13.0745 14.7717 13.1001V13.6596L14.7646 13.663L14.7716 13.6628V15.5174C14.5863 15.4599 14.3882 15.4247 14.1838 15.4247C13.0879 15.4247 12.1966 16.3168 12.1966 17.4136C12.1966 18.1778 12.6311 18.8397 13.2636 19.1754C13.2696 19.1835 13.2755 19.1916 13.2816 19.1996L13.2922 19.2136C13.2849 19.1995 13.2765 19.1857 13.2669 19.1722C13.5448 19.3193 13.8579 19.4025 14.1902 19.4025C15.2604 19.4025 16.1359 18.5487 16.1742 17.4871L16.1774 8H18.5416Z" fill="#F5F5F5"/>
</svg>
