<svg width="31" height="30" viewBox="0 0 31 30" fill="none" xmlns="http://www.w3.org/2000/svg">
<path fill-rule="evenodd" clip-rule="evenodd" d="M23.3799 2.95386C21.7084 2.73014 19.5026 2.72727 16.3779 2.72727H15.2869C12.1668 2.72727 9.96319 2.73014 8.29171 2.95386C6.6643 3.17168 5.74187 3.57684 5.06825 4.23812C4.40911 4.90644 4.0041 5.82489 3.78626 7.45249C3.56254 9.12396 3.55967 11.3298 3.55967 14.4545V15.5455C3.55967 18.6656 3.56254 20.8692 3.78626 22.5407C4.00407 24.1681 4.40924 25.0905 5.07052 25.7642C5.73884 26.4233 6.65729 26.8283 8.28489 27.0461C9.95635 27.2699 12.1622 27.2727 15.2869 27.2727H16.3779C19.498 27.2727 21.7016 27.2699 23.3731 27.0461C25.0005 26.8283 25.9229 26.4232 26.5965 25.7619C27.2557 25.0936 27.6607 24.1751 27.8785 22.5475C28.1023 20.876 28.1051 18.6702 28.1051 15.5455V14.4545C28.1051 11.3344 28.1023 9.13079 27.8785 7.45931C27.6607 5.83193 27.2556 4.90951 26.5943 4.23588C25.926 3.57673 25.0075 3.1717 23.3799 2.95386ZM23.7417 0.25069C25.6754 0.509495 27.2609 1.05733 28.5193 2.30393L28.5251 2.30961L28.5307 2.31535C29.7752 3.57759 30.3229 5.16365 30.5817 7.09751C30.8325 8.97094 30.8324 11.3574 30.8324 14.3536V15.6467C30.8324 18.6471 30.8325 21.0359 30.5817 22.9093C30.3229 24.843 29.7751 26.4285 28.5285 27.6869L28.5228 27.6927L28.517 27.6983C27.2548 28.9428 25.6688 29.4905 23.7349 29.7493C21.8615 30.0001 19.475 30 16.4788 30H15.1857C12.1853 30 9.79652 30.0001 7.92309 29.7493C5.98944 29.4905 4.40395 28.9427 3.14547 27.6961L3.13974 27.6904L3.13408 27.6847C1.88961 26.4224 1.34192 24.8364 1.08309 22.9025C0.832342 21.0291 0.832367 18.6426 0.832398 15.6464V14.3533C0.832367 11.3529 0.832342 8.96412 1.08309 7.09069C1.34189 5.15705 1.88973 3.57155 3.13633 2.31307L3.14201 2.30734L3.14775 2.30168C4.40999 1.05722 5.99604 0.509525 7.92991 0.25069C9.80334 -5.56491e-05 12.1898 -3.07231e-05 15.186 7.04827e-07H16.4791C19.4795 -3.08314e-05 21.8683 -5.57574e-05 23.7417 0.25069Z" fill="#F5F5F5"/>
<path d="M16.7163 20.909C10.7421 20.909 7.33573 16.8214 7.19598 10.0087H10.2006C10.2966 15.0047 12.4977 17.1184 14.2445 17.5551V10.0087H17.0657V14.3147C18.7863 14.1313 20.6031 12.166 21.2145 9.99995H24.0269C23.7976 11.1212 23.3395 12.1832 22.6813 13.1194C22.023 14.0557 21.1788 14.8461 20.2013 15.4414C21.2921 15.9843 22.2555 16.7524 23.0278 17.6948C23.8002 18.6373 24.3639 19.7328 24.682 20.909H21.5813C20.9175 18.839 19.258 17.2319 17.0657 17.0136V20.909H16.7163Z" fill="white"/>
</svg>
