<svg width="37" height="28" viewBox="0 0 37 28" fill="none" xmlns="http://www.w3.org/2000/svg">
<path fill-rule="evenodd" clip-rule="evenodd" d="M30.4575 4.0625C31.77 4.4375 32.7075 5.375 33.0825 6.6875C33.8325 9.125 33.8325 14 33.8325 14C33.8325 14 33.8325 18.875 33.27 21.3125C32.895 22.625 31.9575 23.5625 30.645 23.9375C28.2075 24.5 18.8325 24.5 18.8325 24.5C18.8325 24.5 9.27001 24.5 7.02001 23.9375C5.70751 23.5625 4.77003 22.625 4.39503 21.3125C3.83253 18.875 3.83252 14 3.83252 14C3.83252 14 3.83251 9.125 4.20751 6.6875C4.58251 5.375 5.52003 4.4375 6.83253 4.0625C9.27003 3.5 18.645 3.5 18.645 3.5C18.645 3.5 28.2075 3.5 30.4575 4.0625ZM0.83252 14.0004L0.832542 14.0196L0.832678 14.0667C0.832831 14.107 0.833129 14.1647 0.833714 14.2381C0.834881 14.3849 0.837195 14.5947 0.841782 14.8531C0.850936 15.3687 0.869242 16.0836 0.906025 16.8805C0.976196 18.4008 1.1229 20.4749 1.47185 21.9871L1.48923 22.0624L1.51045 22.1367C2.1702 24.4458 3.88671 26.1623 6.19585 26.8221L6.24391 26.8358L6.29241 26.8479C7.15629 27.0639 8.43836 27.1793 9.6197 27.2563C10.888 27.3391 12.3377 27.393 13.6911 27.4286C15.049 27.4644 16.3324 27.4822 17.2749 27.4911C17.7467 27.4955 18.1344 27.4978 18.4048 27.4989C18.5401 27.4994 18.6461 27.4997 18.7187 27.4999L18.8317 27.5C18.8317 27.5 18.8325 27.5 18.8325 24.5C18.8325 27.5 18.8328 27.5 18.8328 27.5L18.9443 27.4999C19.0157 27.4997 19.1198 27.4994 19.2527 27.4989C19.5185 27.4978 19.8997 27.4955 20.3642 27.4911C21.2922 27.4822 22.5581 27.4644 23.9043 27.4286C25.2464 27.393 26.6892 27.339 27.9648 27.2564C29.171 27.1783 30.4421 27.0632 31.3196 26.8607L31.3949 26.8433L31.4692 26.8221C33.7782 26.1623 35.4949 24.4458 36.1546 22.1367L36.1758 22.0624L36.1932 21.9871C36.5422 20.4749 36.6889 18.4008 36.759 16.8805C36.7958 16.0835 36.8141 15.3687 36.8233 14.853C36.8278 14.5947 36.8302 14.3849 36.8313 14.2381C36.8319 14.1647 36.8322 14.1069 36.8324 14.0667L36.8325 14.0196L36.8325 14.0009C36.8325 14.0009 36.8325 14 34.2359 14C36.8325 14 36.8325 13.9995 36.8325 13.9995L36.8325 13.9928L36.8325 13.9786L36.8323 13.9295C36.8321 13.8879 36.8317 13.8288 36.8309 13.7539C36.8293 13.6043 36.8262 13.3912 36.82 13.1292C36.8076 12.6067 36.7829 11.8821 36.7331 11.0736C36.6399 9.55883 36.443 7.4253 35.9584 5.83316C35.2924 3.53928 33.5808 1.83481 31.2817 1.17793L31.2336 1.1642L31.1852 1.15207C30.3213 0.936102 29.0392 0.820708 27.8579 0.743665C26.5896 0.66095 25.1398 0.606966 23.7864 0.571351C22.4285 0.535616 21.1451 0.517814 20.2026 0.508923C19.7308 0.504472 19.3431 0.502242 19.0727 0.501124C18.9374 0.500565 18.8314 0.500284 18.7588 0.500143L18.6458 0.5C18.6458 0.5 18.645 0.5 18.645 3.5C18.645 0.5 18.6447 0.5 18.6447 0.5L18.5332 0.500143C18.4618 0.500285 18.3577 0.500566 18.2248 0.501125C17.959 0.502244 17.5779 0.504474 17.1133 0.508927C16.1853 0.517822 14.9194 0.53563 13.5732 0.571369C12.2312 0.606999 10.7884 0.660978 9.51271 0.743574C8.3065 0.821674 7.03544 0.936829 6.15795 1.13933L6.08266 1.1567L6.00837 1.17793C3.69926 1.83767 1.9827 3.55419 1.32294 5.86334L1.2711 6.0448L1.2424 6.23133C1.02394 7.65132 0.927571 9.6458 0.880811 11.1656C0.85665 11.9508 0.844609 12.6559 0.838588 13.1647C0.835573 13.4195 0.834057 13.626 0.833294 13.7699L0.832621 13.9371L0.83252 14.0004ZM15.8325 9.5L23.7075 14L15.8325 18.5V9.5Z" fill="white"/>
</svg>
