<svg width="30" height="30" viewBox="0 0 30 30" fill="none" xmlns="http://www.w3.org/2000/svg">
<path fill-rule="evenodd" clip-rule="evenodd" d="M14.9176 0C10.8666 0 10.3582 0.0178125 8.76709 0.090625C7.17912 0.16375 6.0952 0.416563 5.14676 0.7875C4.1657 1.17063 3.33349 1.68313 2.50439 2.51719C1.67467 3.35094 1.16503 4.18781 0.782798 5.17406C0.412997 6.12813 0.161283 7.21844 0.0898089 8.81469C0.0186454 10.4147 0 10.9263 0 15C0 19.0738 0.0180239 19.5834 0.0901197 21.1834C0.163148 22.7803 0.41455 23.8703 0.783109 24.8241C1.16441 25.8106 1.67405 26.6475 2.50346 27.4813C3.33225 28.3156 4.16446 28.8294 5.1449 29.2125C6.09395 29.5834 7.17818 29.8363 8.76584 29.9094C10.3569 29.9822 10.865 30 14.9157 30C18.9671 30 19.4739 29.9822 21.065 29.9094C22.653 29.8363 23.7381 29.5834 24.6872 29.2125C25.6679 28.8294 26.4989 28.3156 27.3277 27.4813C28.1574 26.6475 28.6671 25.8106 29.0493 24.8244C29.416 23.8703 29.6677 22.78 29.7423 21.1838C29.8138 19.5838 29.8324 19.0738 29.8324 15C29.8324 10.9263 29.8138 10.415 29.7423 8.815C29.6677 7.21813 29.416 6.12813 29.0493 5.17438C28.6671 4.18781 28.1574 3.35094 27.3277 2.51719C26.498 1.68281 25.6683 1.17031 24.6863 0.7875C23.7353 0.416563 22.6508 0.16375 21.0628 0.090625C19.4717 0.0178125 18.9652 0 14.9129 0H14.9176ZM14.4204 2.70331L14.9176 2.70346C18.9002 2.70346 19.3723 2.71783 20.945 2.78971C22.3994 2.85658 23.1887 3.10096 23.7145 3.30627C24.4106 3.57815 24.9069 3.90315 25.4286 4.42815C25.9507 4.95315 26.2739 5.45315 26.5449 6.15315C26.749 6.68127 26.9924 7.47502 27.0586 8.93752C27.13 10.5188 27.1456 10.9938 27.1456 14.9969C27.1456 19 27.13 19.475 27.0586 21.0563C26.9921 22.5188 26.749 23.3125 26.5449 23.8407C26.2745 24.5407 25.9507 25.0391 25.4286 25.5638C24.9066 26.0888 24.4109 26.4138 23.7145 26.6857C23.1893 26.8919 22.3994 27.1357 20.945 27.2025C19.3726 27.2744 18.9002 27.29 14.9176 27.29C10.9346 27.29 10.4626 27.2744 8.89012 27.2025C7.43578 27.135 6.64645 26.8907 6.12034 26.6853C5.42425 26.4135 4.92703 26.0885 4.40496 25.5635C3.88289 25.0385 3.5597 24.5397 3.28872 23.8394C3.08455 23.3113 2.84123 22.5175 2.77504 21.055C2.70356 19.4738 2.68927 18.9988 2.68927 14.9931C2.68927 10.9875 2.70356 10.515 2.77504 8.93377C2.84154 7.47127 3.08455 6.67752 3.28872 6.14877C3.55908 5.44877 3.88289 4.94877 4.40496 4.42377C4.92703 3.89877 5.42425 3.57377 6.12034 3.30127C6.64614 3.09502 7.43578 2.85127 8.89012 2.78408C10.2662 2.72158 10.7994 2.70283 13.5795 2.69971V2.70346C13.8392 2.70305 14.1189 2.70317 14.4204 2.70331ZM21.0899 6.99287C21.0899 5.99881 21.8917 5.1935 22.8799 5.1935C23.8681 5.1935 24.6698 5.99912 24.6698 6.99287C24.6698 7.98662 23.8681 8.79287 22.8799 8.79287C21.8917 8.79287 21.0899 7.98662 21.0899 6.99287ZM14.9173 7.29688C10.6871 7.29704 7.25745 10.746 7.25745 15C7.25745 19.2541 10.6873 22.7016 14.9176 22.7016C19.148 22.7016 22.5765 19.2541 22.5765 15C22.5765 10.7459 19.1476 7.29688 14.9173 7.29688ZM19.8897 15C19.8897 12.2384 17.6634 10 14.9176 10C12.1714 10 9.94543 12.2384 9.94543 15C9.94543 17.7613 12.1714 20 14.9176 20C17.6634 20 19.8897 17.7613 19.8897 15Z" fill="white"/>
</svg>
