<svg width="31" height="30" viewBox="0 0 31 30" fill="none" xmlns="http://www.w3.org/2000/svg">
<path d="M15.8516 0C7.59176 0 0.86775 6.71756 0.864749 14.9766C0.863249 17.6166 1.55479 20.1938 2.86592 22.4648L0.83252 30L8.68192 28.1455C10.8706 29.3395 13.3345 29.9663 15.8428 29.9678H15.8486C24.1069 29.9678 30.828 23.2487 30.8325 14.9912C30.8355 10.9877 29.2786 7.2236 26.4493 4.3916C23.62 1.5611 19.86 0.0015 15.8516 0ZM15.8486 3C19.0529 3.0015 22.0643 4.2507 24.328 6.5127C26.5917 8.7777 27.8352 11.7873 27.8322 14.9883C27.8292 21.5943 22.4553 26.9678 15.8457 26.9678C13.846 26.9663 11.8652 26.4642 10.1205 25.5117L9.10969 24.9609L7.99337 25.2246L5.03996 25.9219L5.76073 23.2441L6.08596 22.043L5.46481 20.9648C4.41771 19.1528 3.86354 17.0811 3.86504 14.9766C3.86804 8.37356 9.24349 3 15.8486 3ZM10.5483 8.0625C10.2978 8.0625 9.89272 8.15625 9.54919 8.53125C9.20566 8.90475 8.23656 9.80937 8.23656 11.6514C8.23656 13.4934 9.57849 15.2739 9.76601 15.5244C9.95203 15.7734 12.3563 19.6729 16.1621 21.1729C19.3244 22.4194 19.9667 22.1734 20.6538 22.1104C21.3409 22.0489 22.8703 21.2065 23.1824 20.332C23.4944 19.4575 23.4951 18.7053 23.4021 18.5508C23.3091 18.3948 23.0593 18.3018 22.6843 18.1143C22.3107 17.9268 20.4699 17.0229 20.1264 16.8984C19.7829 16.7739 19.5316 16.7109 19.2826 17.0859C19.0335 17.4609 18.3179 18.3018 18.0989 18.5508C17.8798 18.8013 17.6623 18.835 17.2872 18.6475C16.9122 18.4585 15.7064 18.0621 14.2752 16.7871C13.1621 15.7956 12.411 14.5723 12.192 14.1973C11.9745 13.8238 12.1715 13.6186 12.359 13.4326C12.5271 13.2646 12.7311 12.9954 12.9187 12.7764C13.1047 12.5574 13.1692 12.4013 13.2937 12.1523C13.4182 11.9033 13.3545 11.6836 13.2615 11.4961C13.1685 11.3086 12.4401 9.45975 12.1071 8.71875C11.8265 8.09625 11.5303 8.08179 11.2632 8.07129C11.0457 8.06229 10.7973 8.0625 10.5483 8.0625Z" fill="#F5F5F5"/>
</svg>
