<svg xmlns="http://www.w3.org/2000/svg" width="120" height="40" viewBox="0 0 120 40" fill="none">
  <rect width="119.551" height="40" fill="#009345"/>
  <path d="M40.9853 17.6087H34.2811V30.5391H30.1216V14.0771H40.9853V17.6087Z" fill="#F5F5F5"/>
  <path d="M71.632 30.5391H67.4709V17.6087H63.556V30.5391H59.39V17.6087H55.4751V30.5391H51.3091V14.0771H71.632V30.5391Z" fill="#F5F5F5"/>
  <path d="M103.476 22.0682L108.115 14.0754H103.296L100.461 19.5236L97.6395 14.0771H92.8503L92.8585 14.0901L97.4601 22.0682L92.6709 30.5374H97.4601L97.5008 30.4591L100.461 24.8217L103.484 30.5308H108.291L103.476 22.0682Z" fill="#F5F5F5"/>
  <path d="M79.4552 17.9513V20.3997H86.5166V24.2575H79.4552V26.7043H90.4331V30.562H75.0054V14.0952H90.4331V17.9513H79.4552Z" fill="#F5F5F5"/>
  <path d="M47.9585 12.4607H43.7974V9.58813H47.9585V12.4607ZM47.9585 30.5391H43.7974V14.0772H47.9585V30.5391Z" fill="#F5F5F5"/>
  <path d="M15.7559 25.0012V30.5472H11.2358V9.58813H26.7696V25.0012H15.7559ZM22.2496 21.1108V13.4785H15.7559V21.1108H22.2496Z" fill="#F5F5F5"/>
</svg>